<svg width="22" height="21" viewBox="0 0 22 21" fill="none" xmlns="http://www.w3.org/2000/svg">
<path d="M10.7619 11.503C10.3633 11.503 9.98102 11.6614 9.69916 11.9432C9.4173 12.2251 9.25895 12.6074 9.25895 13.006C9.25895 13.4046 9.4173 13.7869 9.69916 14.0688C9.98102 14.3506 10.3633 14.509 10.7619 14.509C11.1605 14.509 11.5428 14.3506 11.8247 14.0688C12.1065 13.7869 12.2649 13.4046 12.2649 13.006C12.2649 12.6074 12.1065 12.2251 11.8247 11.9432C11.5428 11.6614 11.1605 11.503 10.7619 11.503ZM6.25299 13.006C6.25299 11.8101 6.72804 10.6633 7.57363 9.81769C8.41922 8.97211 9.56608 8.49706 10.7619 8.49706C11.9578 8.49706 13.1046 8.97211 13.9502 9.81769C14.7958 10.6633 15.2709 11.8101 15.2709 13.006C15.2709 14.2018 14.7958 15.3487 13.9502 16.1943C13.1046 17.0399 11.9578 17.5149 10.7619 17.5149C9.56608 17.5149 8.41922 17.0399 7.57363 16.1943C6.72804 15.3487 6.25299 14.2018 6.25299 13.006ZM10.7619 10C9.96469 10 9.20012 10.3167 8.63639 10.8805C8.07267 11.4442 7.75597 12.2088 7.75597 13.006C7.75597 13.8032 8.07267 14.5678 8.63639 15.1315C9.20012 15.6952 9.96469 16.0119 10.7619 16.0119C11.5592 16.0119 12.3237 15.6952 12.8875 15.1315C13.4512 14.5678 13.7679 13.8032 13.7679 13.006C13.7679 12.2088 13.4512 11.4442 12.8875 10.8805C12.3237 10.3167 11.5592 10 10.7619 10ZM0.241089 3.23664C0.241089 2.63872 0.478612 2.06529 0.901407 1.6425C1.3242 1.2197 1.89763 0.982178 2.49555 0.982178H19.0283C19.6262 0.982178 20.1996 1.2197 20.6224 1.6425C21.0452 2.06529 21.2828 2.63872 21.2828 3.23664V4.73962C21.283 5.20603 21.1386 5.66104 20.8694 6.04193C20.6002 6.42283 20.2195 6.71086 19.7798 6.86633V11.503C19.7798 13.8947 18.8297 16.1884 17.1385 17.8796C15.4473 19.5708 13.1536 20.5209 10.7619 20.5209C8.37024 20.5209 6.07651 19.5708 4.38533 17.8796C2.69416 16.1884 1.74407 13.8947 1.74407 11.503V6.86633C1.30433 6.71086 0.923633 6.42283 0.65445 6.04193C0.385266 5.66104 0.240845 5.20603 0.241089 4.73962V3.23664ZM2.49555 5.49111H19.0283C19.2276 5.49111 19.4187 5.41193 19.5597 5.271C19.7006 5.13007 19.7798 4.93893 19.7798 4.73962V3.23664C19.7798 3.03733 19.7006 2.84619 19.5597 2.70526C19.4187 2.56433 19.2276 2.48515 19.0283 2.48515H2.49555C2.29625 2.48515 2.1051 2.56433 1.96417 2.70526C1.82324 2.84619 1.74407 3.03733 1.74407 3.23664V4.73962C1.74407 4.93893 1.82324 5.13007 1.96417 5.271C2.1051 5.41193 2.29625 5.49111 2.49555 5.49111ZM3.24704 6.99408V11.503C3.24704 13.4961 4.03879 15.4075 5.4481 16.8168C6.85741 18.2261 8.76885 19.0179 10.7619 19.0179C12.755 19.0179 14.6664 18.2261 16.0757 16.8168C17.4851 15.4075 18.2768 13.4961 18.2768 11.503V6.99408H3.24704Z" fill="#F8F8F8"/>
</svg>
