<svg width="20" height="19" viewBox="0 0 20 19" fill="none" xmlns="http://www.w3.org/2000/svg">
<path d="M0 1.9C0 1.39609 0.196603 0.912816 0.54656 0.556497C0.896516 0.200178 1.37116 0 1.86607 0H18.0387C18.5336 0 19.0082 0.200178 19.3582 0.556497C19.7082 0.912816 19.9048 1.39609 19.9048 1.9C19.9048 2.40391 19.7082 2.88718 19.3582 3.2435C19.0082 3.59982 18.5336 3.8 18.0387 3.8H1.86607C1.37116 3.8 0.896516 3.59982 0.54656 3.2435C0.196603 2.88718 0 2.40391 0 1.9ZM9.95238 7.6C8.96255 7.6 8.01327 8.00036 7.31336 8.71299C6.61345 9.42563 6.22024 10.3922 6.22024 11.4C6.22024 12.4078 6.61345 13.3744 7.31336 14.087C8.01327 14.7996 8.96255 15.2 9.95238 15.2C10.9422 15.2 11.8915 14.7996 12.5914 14.087C13.2913 13.3744 13.6845 12.4078 13.6845 11.4C13.6845 10.3922 13.2913 9.42563 12.5914 8.71299C11.8915 8.00036 10.9422 7.6 9.95238 7.6ZM7.46429 11.4C7.46429 10.7281 7.72642 10.0838 8.19303 9.60866C8.65964 9.13357 9.2925 8.86667 9.95238 8.86667C10.6123 8.86667 11.2451 9.13357 11.7117 9.60866C12.1783 10.0838 12.4405 10.7281 12.4405 11.4C12.4405 12.0719 12.1783 12.7162 11.7117 13.1913C11.2451 13.6664 10.6123 13.9333 9.95238 13.9333C9.2925 13.9333 8.65964 13.6664 8.19303 13.1913C7.72642 12.7162 7.46429 12.0719 7.46429 11.4ZM1.24405 5.06667H18.6607V10.1333C18.6607 11.2977 18.4355 12.4507 17.9978 13.5265C17.5602 14.6022 16.9187 15.5797 16.1101 16.403C15.3015 17.2264 14.3415 17.8795 13.2849 18.3251C12.2284 18.7707 11.096 19 9.95238 19C8.80879 19 7.67639 18.7707 6.61985 18.3251C5.5633 17.8795 4.6033 17.2264 3.79466 16.403C2.98602 15.5797 2.34456 14.6022 1.90693 13.5265C1.4693 12.4507 1.24405 11.2977 1.24405 10.1333V5.06667ZM9.95238 6.33333C8.63261 6.33333 7.3669 6.86714 6.43368 7.81733C5.50047 8.76751 4.97619 10.0562 4.97619 11.4C4.97619 12.7438 5.50047 14.0325 6.43368 14.9827C7.3669 15.9329 8.63261 16.4667 9.95238 16.4667C11.2721 16.4667 12.5379 15.9329 13.4711 14.9827C14.4043 14.0325 14.9286 12.7438 14.9286 11.4C14.9286 10.0562 14.4043 8.76751 13.4711 7.81733C12.5379 6.86714 11.2721 6.33333 9.95238 6.33333Z" fill="#F8F8F8"/>
</svg>
