<svg width="23" height="23" viewBox="0 0 23 23" fill="none" xmlns="http://www.w3.org/2000/svg">
<path fill-rule="evenodd" clip-rule="evenodd" d="M12.7778 10.4139V1.27778C12.7778 0.93889 12.6432 0.613882 12.4035 0.374252C12.1639 0.134623 11.8389 0 11.5 0C11.1611 0 10.8361 0.134623 10.5965 0.374252C10.3569 0.613882 10.2222 0.93889 10.2222 1.27778V10.4139L7.38557 6.86678C7.28277 6.72993 7.15352 6.61513 7.0055 6.5292C6.85748 6.44327 6.6937 6.38795 6.52389 6.36652C6.35408 6.3451 6.18169 6.35801 6.01696 6.40449C5.85224 6.45097 5.69853 6.53007 5.56496 6.6371C5.43139 6.74413 5.32068 6.8769 5.23941 7.02753C5.15814 7.17816 5.10796 7.34359 5.09185 7.51399C5.07574 7.68439 5.09403 7.85628 5.14563 8.01948C5.19723 8.18267 5.2811 8.33384 5.39224 8.464L10.5034 14.8529C10.6231 15.0021 10.7748 15.1226 10.9473 15.2053C11.1198 15.2881 11.3087 15.3311 11.5 15.3311C11.6913 15.3311 11.8802 15.2881 12.0527 15.2053C12.2252 15.1226 12.377 15.0021 12.4967 14.8529L17.6078 8.464C17.7189 8.33384 17.8028 8.18267 17.8544 8.01948C17.906 7.85628 17.9243 7.68439 17.9082 7.51399C17.8921 7.34359 17.8419 7.17816 17.7606 7.02753C17.6794 6.8769 17.5687 6.74413 17.4351 6.6371C17.3015 6.53007 17.1478 6.45097 16.9831 6.40449C16.8183 6.35801 16.646 6.3451 16.4762 6.36652C16.3063 6.38795 16.1426 6.44327 15.9945 6.5292C15.8465 6.61513 15.7173 6.72993 15.6145 6.86678L12.7778 10.4139Z" fill="#F8F8F8"/>
<path fill-rule="evenodd" clip-rule="evenodd" d="M8.50617 16.4502L5.56856 12.7778H2.55556C1.87778 12.7778 1.22776 13.0471 0.748505 13.5263C0.269245 14.0056 0 14.6556 0 15.3334V20.4445C0 21.1223 0.269245 21.7723 0.748505 22.2515C1.22776 22.7308 1.87778 23.0001 2.55556 23.0001H20.4444C21.1222 23.0001 21.7722 22.7308 22.2515 22.2515C22.7308 21.7723 23 21.1223 23 20.4445V15.3334C23 14.6556 22.7308 14.0056 22.2515 13.5263C21.7722 13.0471 21.1222 12.7778 20.4444 12.7778H17.4314L14.4926 16.4502C14.1334 16.899 13.6779 17.2614 13.1598 17.5104C12.6417 17.7594 12.0742 17.8887 11.4994 17.8887C10.9245 17.8887 10.357 17.7594 9.8389 17.5104C9.32078 17.2614 8.8653 16.899 8.50617 16.4502ZM17.8889 16.6112C17.55 16.6112 17.225 16.7458 16.9854 16.9854C16.7457 17.225 16.6111 17.5501 16.6111 17.8889C16.6111 18.2278 16.7457 18.5528 16.9854 18.7925C17.225 19.0321 17.55 19.1667 17.8889 19.1667H17.9017C18.2406 19.1667 18.5656 19.0321 18.8052 18.7925C19.0448 18.5528 19.1794 18.2278 19.1794 17.8889C19.1794 17.5501 19.0448 17.225 18.8052 16.9854C18.5656 16.7458 18.2406 16.6112 17.9017 16.6112H17.8889Z" fill="#F8F8F8"/>
</svg>
