<svg width="25" height="26" viewBox="0 0 25 26" fill="none" xmlns="http://www.w3.org/2000/svg">
<path d="M5.36736 7.73255L2.92824 5.30489L4.54287 3.69026L6.97053 6.12938L5.36736 7.73255ZM13.3832 0.976318V4.41169H11.093V0.976318H13.3832ZM21.548 5.30489L19.1089 7.73255L17.5057 6.12938L19.9333 3.69026L21.548 5.30489ZM3.64967 11.855V14.1453H0.214294V11.855H3.64967ZM20.8265 11.855H24.2619V14.1453H20.8265V11.855ZM5.36736 22.7337H19.1089C19.7163 22.7337 20.2988 22.975 20.7283 23.4045C21.1578 23.834 21.3991 24.4165 21.3991 25.0239H3.07711C3.07711 24.4165 3.3184 23.834 3.7479 23.4045C4.17741 22.975 4.75994 22.7337 5.36736 22.7337ZM12.2381 5.55682C14.0603 5.55682 15.8079 6.2807 17.0965 7.56921C18.385 8.85773 19.1089 10.6053 19.1089 12.4276V21.5886H5.36736V12.4276C5.36736 10.6053 6.09124 8.85773 7.37975 7.56921C8.66827 6.2807 10.4159 5.55682 12.2381 5.55682ZM12.2381 7.84707C11.0233 7.84707 9.85821 8.32965 8.9992 9.18866C8.14019 10.0477 7.6576 11.2127 7.6576 12.4276V19.2983H16.8186V12.4276C16.8186 11.2127 16.336 10.0477 15.477 9.18866C14.618 8.32965 13.4529 7.84707 12.2381 7.84707Z" fill="#F8F8F8"/>
</svg>
