<svg width="25" height="25" viewBox="0 0 25 25" fill="none" xmlns="http://www.w3.org/2000/svg">
<path d="M20.6789 14.164L20.5797 13.1671L20.5467 13.1701L20.5146 13.1761L20.6789 14.164ZM20.6789 14.164L20.7791 15.161L20.8122 15.158L20.8443 15.153L20.6789 14.164ZM16.6309 19.6569L17.2652 18.8814L17.2572 18.8754L16.6309 19.6569ZM16.6309 19.6569L15.9967 20.4325L16.0047 20.4395L16.6309 19.6569ZM7.41668 19.6569L6.78242 18.8824L6.76639 18.8954L6.75136 18.9084L7.41668 19.6569ZM7.41668 19.6569L8.05093 20.4335L8.06696 20.4204L8.08199 20.4064L7.41668 19.6569ZM3.36766 9.88356V8.88158H3.31756L3.26846 8.88659L3.36766 9.88356ZM3.36766 9.88356V10.8855H3.41776L3.46786 10.8805L3.36766 9.88356ZM15.161 3.26746C15.1443 3.07476 15.1205 2.88262 15.0919 2.69132C15.0606 2.48083 14.9964 2.27659 14.9015 2.08612L13.121 3.00594C13.0979 2.96085 13.1029 2.94482 13.116 3.02398C13.131 3.11315 13.144 3.2374 13.1671 3.46786L15.161 3.26746ZM15.2562 4.21934C15.3193 4.30151 15.2983 4.33858 15.2632 4.14319C15.2301 3.95683 15.2041 3.69531 15.161 3.26746L13.1661 3.46685C13.2061 3.86164 13.2402 4.21634 13.2913 4.4989C13.3404 4.76943 13.4266 5.12514 13.662 5.43375L15.2562 4.21934ZM15.2562 4.21934L13.662 5.43375C13.8765 5.71515 14.1616 5.93477 14.4884 6.07028C14.8152 6.2058 15.1721 6.25237 15.5227 6.20528L15.2562 4.21934ZM15.9957 3.61314C15.7711 3.80293 15.5402 3.98506 15.3033 4.15923C15.14 4.27245 15.153 4.23237 15.2562 4.21934L15.5227 6.20528C15.9075 6.15317 16.2201 5.9628 16.4466 5.80448C16.682 5.64216 16.9576 5.41571 17.2642 5.16422L15.9957 3.61314ZM17.0137 2.96185C16.8121 3.02926 16.6224 3.128 16.4516 3.25443C16.3113 3.35463 16.154 3.48389 15.9957 3.61314L17.2642 5.16422C17.4435 5.01793 17.5407 4.93877 17.6149 4.88667C17.68 4.83957 17.671 4.8556 17.6239 4.87063L17.0137 2.96185ZM18.4205 3.03199C17.9755 2.83916 17.4756 2.81424 17.0137 2.96185L17.6239 4.87063L18.4205 3.03199ZM19.3683 3.78148C19.2335 3.64269 19.0941 3.50836 18.9505 3.37868C18.7928 3.23593 18.6136 3.11893 18.4195 3.03199L17.6239 4.87063C17.5778 4.85059 17.5708 4.83456 17.6309 4.88767C17.699 4.94779 17.7882 5.03496 17.9515 5.19828L19.3683 3.78148ZM20.2641 4.67725L19.3683 3.78148L17.9515 5.19828L18.8473 6.09406L20.2641 4.67725ZM21.0136 5.62513C20.9267 5.43099 20.8097 5.25178 20.6669 5.09408C20.537 4.95103 20.4026 4.81202 20.2641 4.67725L18.8473 6.09506C19.0106 6.25838 19.0978 6.34756 19.1579 6.41569C19.211 6.47581 19.195 6.4688 19.175 6.42271L21.0136 5.62513ZM21.0837 7.03191C21.2314 6.56995 21.2064 6.07012 21.0136 5.62513L19.175 6.42271L21.0837 7.03191ZM20.4325 8.04993C20.5571 7.90206 20.6768 7.75001 20.7912 7.59403C20.8974 7.44573 21.0116 7.26137 21.0837 7.03191L19.175 6.42271C19.19 6.37561 19.205 6.36559 19.1589 6.43173C19.1068 6.50487 19.0287 6.60206 18.8814 6.78142L20.4325 8.04993ZM19.8263 8.7904C19.8132 8.8936 19.7731 8.90562 19.8864 8.7423C19.9936 8.58699 20.1599 8.38259 20.4325 8.04993L18.8814 6.78142C18.6309 7.08803 18.4034 7.36357 18.2401 7.59904C18.0828 7.82549 17.8924 8.1381 17.8403 8.52287L19.8263 8.7904ZM19.8263 8.7904L17.8403 8.52287C17.7932 8.87351 17.8398 9.23038 17.9753 9.55719C18.1108 9.884 18.3304 10.1691 18.6118 10.3836L19.8263 8.7904ZM20.7781 8.88558C20.4851 8.86106 20.1931 8.82664 19.9024 8.78238C19.707 8.74731 19.7441 8.72727 19.8263 8.7904L18.6118 10.3836C18.9205 10.619 19.2752 10.7052 19.5477 10.7543C19.8293 10.8044 20.184 10.8395 20.5787 10.8795L20.7781 8.88558ZM21.9595 9.1441C21.769 9.04922 21.5648 8.98497 21.3543 8.95372C21.163 8.92506 20.9708 8.90234 20.7781 8.88558L20.5787 10.8795C20.7271 10.8926 20.8751 10.9093 21.0226 10.9296C21.1028 10.9437 21.0857 10.9487 21.0407 10.9256L21.9595 9.1441ZM22.9043 10.1892C22.7263 9.73793 22.3905 9.36661 21.9595 9.1441L21.0417 10.9276L22.9043 10.1892ZM23.0446 11.3895C23.0446 11.1851 23.0446 10.9817 23.0336 10.8094C23.0232 10.5967 22.9792 10.3871 22.9033 10.1882L21.0417 10.9276C21.0236 10.8805 21.0296 10.8645 21.0356 10.9447C21.0417 11.0348 21.0417 11.1601 21.0417 11.3915L23.0446 11.3895ZM23.0446 12.656V11.3895H21.0407V12.656H23.0446ZM22.9043 13.8564C22.9925 13.633 23.0216 13.4186 23.0336 13.2352C23.0446 13.0639 23.0446 12.8605 23.0446 12.656H21.0407C21.0407 12.8875 21.0407 13.0128 21.0346 13.1029C21.0286 13.1831 21.0226 13.1671 21.0407 13.12L22.9043 13.8564ZM21.9595 14.9015C22.3905 14.679 22.7263 14.3077 22.9043 13.8564L21.0417 13.121L21.9595 14.9015ZM20.7781 15.16C20.9825 15.14 21.1839 15.1199 21.3543 15.0919C21.5346 15.0618 21.7451 15.0117 21.9595 14.9015L21.0417 13.121C21.0857 13.0979 21.1028 13.1029 21.0236 13.116C20.8762 13.1373 20.7282 13.1543 20.5797 13.1671L20.7781 15.16ZM19.8273 15.2552C19.7441 15.3183 19.707 15.2983 19.9024 15.2632C20.0888 15.2301 20.3503 15.2031 20.7781 15.16L20.5787 13.1661C20.185 13.2061 19.8293 13.2402 19.5477 13.2913C19.2762 13.3404 18.9205 13.4266 18.6118 13.662L19.8273 15.2552ZM19.8273 15.2552L18.6118 13.662C18.3304 13.8765 18.1108 14.1616 17.9753 14.4884C17.8398 14.8152 17.7932 15.1721 17.8403 15.5227L19.8273 15.2552ZM20.4325 15.9947C20.2427 15.7704 20.0606 15.5398 19.8864 15.3033C19.7731 15.14 19.8142 15.152 19.8273 15.2552L17.8403 15.5227C17.8924 15.9075 18.0828 16.2201 18.2411 16.4466C18.4044 16.682 18.6309 16.9576 18.8814 17.2642L20.4325 15.9947ZM21.0837 17.0127C21.0162 16.8115 20.9175 16.6221 20.7912 16.4516C20.691 16.3103 20.5617 16.154 20.4325 15.9947L18.8814 17.2642C19.0277 17.4435 19.1068 17.5397 19.1589 17.6139C19.206 17.679 19.191 17.671 19.175 17.6239L21.0837 17.0127ZM21.0136 18.4205C21.2067 17.9752 21.2316 17.475 21.0837 17.0127L19.175 17.6239L21.0136 18.4205ZM20.2641 19.3683C20.4094 19.2231 20.5527 19.0808 20.6669 18.9505C20.7872 18.8122 20.9174 18.6409 21.0136 18.4195L19.175 17.6229C19.195 17.5768 19.211 17.5708 19.1579 17.6309C19.0978 17.699 19.0106 17.7872 18.8473 17.9515L20.2641 19.3683ZM19.3683 20.2631L20.2641 19.3683L18.8473 17.9515L17.9515 18.8463L19.3683 20.2631ZM18.4205 21.0136C18.6147 20.9264 18.7939 20.809 18.9515 20.6659C19.0808 20.5527 19.2241 20.4084 19.3683 20.2631L17.9515 18.8463C17.8476 18.9528 17.7407 19.0564 17.6309 19.1569C17.5708 19.211 17.5778 19.195 17.6239 19.175L18.4205 21.0136ZM17.0137 21.0837C17.4756 21.2314 17.9755 21.2064 18.4205 21.0136L17.6239 19.175L17.0137 21.0837ZM15.9957 20.4325C16.154 20.5617 16.3103 20.691 16.4516 20.7912C16.5999 20.8964 16.7842 21.0106 17.0137 21.0837L17.6239 19.175C17.671 19.19 17.68 19.205 17.6139 19.1589C17.4947 19.0698 17.3781 18.9772 17.2642 18.8814L15.9957 20.4325ZM15.2562 19.8273C15.153 19.8122 15.14 19.7721 15.3033 19.8854C15.4586 19.9936 15.662 20.1589 15.9947 20.4314L17.2642 18.8814C16.9576 18.6299 16.682 18.4034 16.4466 18.2401C16.2201 18.0818 15.9075 17.8924 15.5227 17.8403L15.2562 19.8273ZM15.2562 19.8273L15.5227 17.8403C15.1721 17.7932 14.8152 17.8398 14.4884 17.9753C14.1616 18.1108 13.8765 18.3304 13.662 18.6118L15.2562 19.8273ZM15.16 20.7781C15.2031 20.3503 15.2301 20.0878 15.2632 19.9024C15.2983 19.707 15.3183 19.7431 15.2552 19.8263L13.662 18.6108C13.4266 18.9195 13.3404 19.2752 13.2913 19.5467C13.2412 19.8293 13.2071 20.184 13.1671 20.5787L15.16 20.7781ZM14.9005 21.9595C15.0107 21.7451 15.0608 21.5346 15.0909 21.3543C15.1209 21.1839 15.139 20.9825 15.16 20.7781L13.1671 20.5787C13.1537 20.7275 13.1363 20.8748 13.115 21.0226C13.1019 21.1028 13.0969 21.0857 13.12 21.0407L14.9005 21.9595ZM13.8574 22.9043C14.3079 22.7259 14.6785 22.3902 14.9005 21.9595L13.121 21.0417L13.8574 22.9043ZM12.655 23.0446C12.8605 23.0446 13.0639 23.0446 13.2362 23.0336C13.4186 23.0216 13.633 22.9945 13.8574 22.9043L13.121 21.0417C13.1681 21.0236 13.1841 21.0296 13.1039 21.0356C12.9551 21.0419 12.806 21.0439 12.6571 21.0417L12.655 23.0446ZM11.3895 23.0446H12.655L12.656 21.0407H11.3895V23.0446ZM10.1892 22.9043C10.4126 22.9925 10.627 23.0216 10.8104 23.0336C10.9817 23.0446 11.1851 23.0446 11.3895 23.0446V21.0407C11.1581 21.0407 11.0328 21.0407 10.9427 21.0346C10.8625 21.0286 10.8785 21.0226 10.9256 21.0407L10.1892 22.9043ZM9.1441 21.9595C9.36661 22.3905 9.73793 22.7263 10.1892 22.9043L10.9256 21.0407L9.1441 21.9595ZM8.88558 20.7781C8.90562 20.9825 8.92566 21.1839 8.95372 21.3543C8.98378 21.5346 9.03388 21.7451 9.1441 21.9595L10.9276 21.0417C10.9507 21.0857 10.9457 21.1028 10.9326 21.0236C10.9113 20.8762 10.8943 20.7282 10.8815 20.5797L8.88558 20.7781ZM8.7904 19.8263C8.72727 19.7441 8.74731 19.706 8.78238 19.9024C8.81545 20.0878 8.8425 20.3503 8.88558 20.7781L10.8795 20.5787C10.8395 20.184 10.8054 19.8293 10.7543 19.5467C10.7052 19.2762 10.619 18.9205 10.3836 18.6118L8.7904 19.8263ZM8.7904 19.8263L10.3836 18.6118C10.1691 18.3304 9.884 18.1108 9.55719 17.9753C9.23038 17.8398 8.87351 17.7932 8.52287 17.8403L8.7904 19.8263ZM8.04993 20.4325C8.38359 20.1599 8.58699 19.9936 8.7423 19.8864C8.90562 19.7731 8.8936 19.8132 8.7904 19.8263L8.52287 17.8403C8.1381 17.8924 7.82549 18.0828 7.59904 18.2411C7.36357 18.4034 7.08803 18.6299 6.78142 18.8814L8.04993 20.4325ZM7.03191 21.0837C7.23349 21.0163 7.42318 20.9176 7.59403 20.7912C7.7343 20.691 7.89162 20.5617 8.04993 20.4325L6.78242 18.8824C6.6682 18.9782 6.55226 19.0708 6.43273 19.1599C6.3676 19.207 6.37662 19.192 6.42371 19.176L7.03191 21.0837ZM5.62513 21.0136C6.07012 21.2064 6.56995 21.2314 7.03191 21.0837L6.42171 19.175L5.62513 21.0136ZM4.67625 20.2641C4.82154 20.4094 4.96482 20.5527 5.09508 20.6669C5.23235 20.7872 5.40369 20.9184 5.62613 21.0146L6.42171 19.175C6.4678 19.195 6.47481 19.211 6.41469 19.1579C6.30484 19.0575 6.19791 18.9539 6.09406 18.8473L4.67625 20.2641ZM3.78148 19.3683L4.67725 20.2641L6.09406 18.8473L5.19828 17.9515L3.78148 19.3683ZM3.03199 18.4205C3.12718 18.6409 3.25844 18.8132 3.37868 18.9515C3.49291 19.0808 3.63619 19.2241 3.78148 19.3683L5.19828 17.9515C5.09169 17.8477 4.98811 17.7407 4.88767 17.6309C4.83456 17.5708 4.85059 17.5778 4.87063 17.6239L3.03199 18.4205ZM2.96185 17.0137C2.81424 17.4756 2.83916 17.9755 3.03199 18.4205L4.87063 17.6239L2.96185 17.0137ZM3.61314 15.9957C3.48846 16.1435 3.36882 16.2956 3.25443 16.4516C3.128 16.6224 3.02926 16.8121 2.96185 17.0137L4.87063 17.6239C4.8546 17.671 4.84057 17.68 4.88667 17.6139C4.93877 17.5407 5.01692 17.4435 5.16422 17.2642L3.61314 15.9957ZM4.21834 15.2552C4.23237 15.152 4.27245 15.14 4.15923 15.3033C4.05201 15.4586 3.88568 15.663 3.61314 15.9957L5.16422 17.2642C5.41471 16.9576 5.64216 16.682 5.80549 16.4466C5.9628 16.2201 6.15317 15.9075 6.20528 15.5227L4.21834 15.2552ZM4.21834 15.2552L6.20528 15.5227C6.25237 15.1721 6.2058 14.8152 6.07028 14.4884C5.93477 14.1616 5.71515 13.8765 5.43375 13.662L4.21834 15.2552ZM3.26646 15.16C3.69531 15.2031 3.95783 15.2301 4.14319 15.2632C4.33858 15.2983 4.30151 15.3183 4.21834 15.2552L5.43375 13.662C5.12514 13.4266 4.77044 13.3404 4.4979 13.2913C4.21634 13.2412 3.86164 13.2061 3.46585 13.1661L3.26646 15.16ZM2.08612 14.9015C2.30054 15.0117 2.51096 15.0618 2.69132 15.0919C2.86166 15.1199 3.06306 15.141 3.26746 15.161L3.46585 13.1661C3.31744 13.1537 3.17042 13.137 3.02298 13.116C2.94282 13.1019 2.95985 13.0969 3.00494 13.12L2.08612 14.9015ZM1.14225 13.8574C1.32033 14.3087 1.65606 14.68 2.08712 14.9025L3.00594 13.121L1.14225 13.8574ZM1.00197 12.6571C1.00197 12.8615 1.00197 13.0649 1.013 13.2372C1.02502 13.4196 1.05307 13.634 1.14325 13.8584L3.00594 13.12C3.02398 13.1671 3.01797 13.1831 3.01296 13.1029C3.00635 12.9544 3.00401 12.8057 3.00594 12.6571H1.00197ZM1.00197 11.3905V12.6571H3.00594V11.3905H1.00197ZM1.14225 10.1892C1.06677 10.3882 1.02315 10.5978 1.013 10.8104C1.00097 10.9827 1.00197 11.1861 1.00197 11.3915H3.00594C3.00594 11.1591 3.00594 11.0338 3.01296 10.9437C3.01797 10.8635 3.02398 10.8795 3.00594 10.9266L1.14225 10.1892ZM2.08712 9.1461C1.65642 9.36812 1.32074 9.73868 1.14225 10.1892L3.00594 10.9266L2.08712 9.1461ZM3.26846 8.88558C3.06406 8.90663 2.86266 8.92566 2.69232 8.95572C2.51196 8.98578 2.30155 9.03588 2.08712 9.1461L3.00594 10.9266C2.96085 10.9497 2.94482 10.9447 3.02398 10.9316C3.17141 10.9103 3.31943 10.8933 3.46786 10.8805L3.26846 8.88558ZM4.22035 8.7914C4.30351 8.72827 4.34058 8.74831 4.1442 8.78338C3.95883 8.81645 3.69631 8.8435 3.26846 8.88659L3.46786 10.8805C3.86164 10.8405 4.21734 10.8064 4.4999 10.7553C4.77144 10.7062 5.12714 10.62 5.43575 10.3846L4.22035 8.7914ZM4.22035 8.7914L5.43575 10.3846C5.71698 10.17 5.9364 9.88484 6.07173 9.55803C6.20706 9.23123 6.25349 8.87442 6.20628 8.52387L4.22035 8.7914ZM3.61415 8.05093C3.88669 8.38359 4.05302 8.588 4.16123 8.7433C4.27445 8.90663 4.23437 8.8946 4.22035 8.7914L6.20628 8.52387C6.15418 8.13911 5.9648 7.82749 5.80649 7.60004C5.64316 7.36457 5.41571 7.08903 5.16522 6.78242L3.61415 8.05093ZM2.96286 7.03191C3.036 7.26237 3.14923 7.44573 3.25544 7.59503C3.35563 7.73531 3.48489 7.89262 3.61415 8.05093L5.16522 6.78242C5.06935 6.66821 4.97679 6.55227 4.88767 6.43273C4.84057 6.3676 4.85661 6.37561 4.87164 6.42271L2.96286 7.03191ZM3.033 5.62613C2.84041 6.07083 2.81549 6.57025 2.96286 7.03191L4.87164 6.42271L3.033 5.62613ZM3.78248 4.67725C3.63719 4.82254 3.49391 4.96482 3.37968 5.09508C3.23693 5.25278 3.11993 5.432 3.033 5.62613L4.87164 6.42271C4.8516 6.4688 4.83557 6.47581 4.88867 6.41469C4.94879 6.34656 5.03596 6.25838 5.19929 6.09406L3.78248 4.67725ZM4.67825 3.78248L3.78248 4.67725L5.19929 6.09406L6.09606 5.19929L4.67825 3.78248ZM5.62613 3.03199C5.43193 3.11924 5.25271 3.23658 5.09508 3.37968C4.95203 3.50963 4.81302 3.64396 4.67825 3.78248L6.09606 5.19929C6.25938 5.03496 6.34756 4.94779 6.41569 4.88867C6.47581 4.83456 6.4688 4.85059 6.42271 4.87063L5.62613 3.03199ZM7.03292 2.96185C6.57095 2.81424 6.07112 2.83916 5.62613 3.03199L6.42271 4.87063L7.03292 2.96185ZM8.04993 3.61314C7.89162 3.48389 7.73631 3.35563 7.59503 3.25544C7.42425 3.12865 7.23455 3.02957 7.03292 2.96185L6.42271 4.87063C6.37561 4.8556 6.3666 4.84057 6.43273 4.88667C6.50587 4.93977 6.60307 5.01793 6.78242 5.16522L8.04993 3.61314ZM8.7914 4.21934C8.8946 4.23337 8.90663 4.27345 8.7433 4.16023C8.50676 3.98604 8.27618 3.8039 8.05193 3.61415L6.78242 5.16522C7.08903 5.41571 7.36357 5.64216 7.59904 5.80649C7.82549 5.9638 8.1381 6.15317 8.52287 6.20528L8.7914 4.21934ZM8.7914 4.21934L8.52387 6.20528C8.87451 6.25237 9.23138 6.2058 9.55819 6.07028C9.885 5.93477 10.1701 5.71515 10.3846 5.43375L8.7914 4.21934ZM8.88659 3.26746C8.8435 3.69631 8.81645 3.95883 8.78338 4.1442C8.74831 4.33958 8.72827 4.30251 8.7914 4.21934L10.3846 5.43375C10.62 5.12514 10.7062 4.77044 10.7553 4.4989C10.8054 4.21734 10.8415 3.86164 10.8805 3.46685L8.88659 3.26746ZM9.1451 2.08712C9.05022 2.27759 8.98597 2.48183 8.95472 2.69232C8.92667 2.86266 8.90663 3.06406 8.88659 3.26846L10.8805 3.46685C10.8936 3.31851 10.9103 3.17151 10.9306 3.02398C10.9447 2.94382 10.9497 2.96185 10.9266 3.00594L9.1451 2.08712ZM10.1902 1.14225C9.73893 1.32033 9.36761 1.65606 9.1451 2.08712L10.9266 3.00594L10.1902 1.14225ZM11.3905 1.00197C11.1861 1.00197 10.9827 1.00197 10.8104 1.013C10.5978 1.02315 10.3882 1.06677 10.1892 1.14225L10.9276 3.00594C10.8805 3.02398 10.8645 3.01797 10.9447 3.01296C11.0348 3.00694 11.1601 3.00594 11.3915 3.00594L11.3905 1.00197ZM12.6571 1.00197H11.3905V3.00594H12.6571V1.00197ZM13.8574 1.14225C13.6584 1.06677 13.4488 1.02315 13.2362 1.013C13.0659 1.00097 12.8625 1.00197 12.6581 1.00197V3.00594C12.8895 3.00594 13.0148 3.00594 13.1049 3.01296C13.1851 3.01797 13.1681 3.02398 13.121 3.00594L13.8574 1.14225ZM14.9025 2.08712C14.68 1.65606 14.3087 1.32033 13.8574 1.14225L13.121 3.00594L14.9025 2.08712ZM15.0298 12.0238C15.0298 12.821 14.7131 13.5856 14.1493 14.1493C13.5856 14.7131 12.821 15.0298 12.0238 15.0298V17.0337C13.3525 17.0337 14.6268 16.5059 15.5663 15.5663C16.5059 14.6268 17.0337 13.3525 17.0337 12.0238H15.0298ZM12.0238 9.01785C12.821 9.01785 13.5856 9.33454 14.1493 9.89827C14.7131 10.462 15.0298 11.2266 15.0298 12.0238H17.0337C17.0337 10.6951 16.5059 9.42079 15.5663 8.48125C14.6268 7.54171 13.3525 7.01388 12.0238 7.01388V9.01785ZM9.01785 12.0238C9.01785 11.2266 9.33454 10.462 9.89827 9.89827C10.462 9.33454 11.2266 9.01785 12.0238 9.01785V7.01388C10.6951 7.01388 9.42079 7.54171 8.48125 8.48125C7.54171 9.42079 7.01388 10.6951 7.01388 12.0238H9.01785ZM12.0238 15.0298C11.2266 15.0298 10.462 14.7131 9.89827 14.1493C9.33454 13.5856 9.01785 12.821 9.01785 12.0238H7.01388C7.01388 13.3525 7.54171 14.6268 8.48125 15.5663C9.42079 16.5059 10.6951 17.0337 12.0238 17.0337V15.0298Z" fill="#F8F8F8"/>
</svg>
