<svg width="23" height="23" viewBox="0 0 23 23" fill="none" xmlns="http://www.w3.org/2000/svg">
<path d="M11.5 12.8125V1M4.9375 14.125H2.3125C1.9644 14.125 1.63056 14.2633 1.38442 14.5094C1.13828 14.7556 1 15.0894 1 15.4375V20.6875C1 21.0356 1.13828 21.3694 1.38442 21.6156C1.63056 21.8617 1.9644 22 2.3125 22H20.6875C21.0356 22 21.3694 21.8617 21.6156 21.6156C21.8617 21.3694 22 21.0356 22 20.6875V15.4375C22 15.0894 21.8617 14.7556 21.6156 14.5094C21.3694 14.2633 21.0356 14.125 20.6875 14.125H18.0625M16.75 7.5625L11.5 14.125L6.25 7.5625M18.0625 18.0625H18.0756" stroke="#F8F8F8" stroke-width="2" stroke-linecap="round" stroke-linejoin="round"/>
</svg>
