<svg width="21" height="21" viewBox="0 0 21 21" fill="none" xmlns="http://www.w3.org/2000/svg">
<path d="M4.5 5.9L2.37 3.78L3.78 2.37L5.9 4.5L4.5 5.9ZM11.5 0V3H9.5V0H11.5ZM18.63 3.78L16.5 5.9L15.1 4.5L17.22 2.37L18.63 3.78ZM3 9.5V11.5H0V9.5H3ZM18 9.5H21V11.5H18V9.5ZM4.5 19H16.5C17.0304 19 17.5391 19.2107 17.9142 19.5858C18.2893 19.9609 18.5 20.4696 18.5 21H2.5C2.5 20.4696 2.71071 19.9609 3.08579 19.5858C3.46086 19.2107 3.96957 19 4.5 19ZM10.5 4C12.0913 4 13.6174 4.63214 14.7426 5.75736C15.8679 6.88258 16.5 8.4087 16.5 10V18H4.5V10C4.5 8.4087 5.13214 6.88258 6.25736 5.75736C7.38258 4.63214 8.9087 4 10.5 4Z" fill="#F8F8F8"/>
</svg>
