<svg width="29" height="30" viewBox="0 0 29 30" fill="currentColor" xmlns="http://www.w3.org/2000/svg">
<path d="M14.9451 22C13.9091 21.9984 12.8912 21.7286 11.9905 21.2169C11.0898 20.7052 10.3369 19.969 9.80507 19.08L8.09507 20.08C8.807 21.2601 9.81173 22.2363 11.0119 22.9139C12.212 23.5915 13.5669 23.9475 14.9451 23.9475C16.3233 23.9475 17.6781 23.5915 18.8783 22.9139C20.0784 22.2363 21.0831 21.2601 21.7951 20.08L20.0851 19.08C19.5533 19.969 18.8004 20.7052 17.8996 21.2169C16.9989 21.7286 15.981 21.9984 14.9451 22ZM28.9451 4H24.9451V0H22.9451V4H18.9451V6H22.9451V10H24.9451V6H28.9451V4ZM10.4451 11C9.95062 11 9.46727 11.1466 9.05614 11.4213C8.64502 11.696 8.32459 12.0865 8.13537 12.5433C7.94615 13.0001 7.89664 13.5028 7.99311 13.9877C8.08957 14.4727 8.32767 14.9181 8.6773 15.2678C9.02693 15.6174 9.47239 15.8555 9.95734 15.952C10.4423 16.0484 10.945 15.9989 11.4018 15.8097C11.8586 15.6205 12.249 15.3 12.5237 14.8889C12.7984 14.4778 12.9451 13.9945 12.9451 13.5C12.9477 13.171 12.8849 12.8447 12.7602 12.5401C12.6355 12.2356 12.4515 11.959 12.2188 11.7263C11.9861 11.4936 11.7094 11.3096 11.4049 11.1849C11.1004 11.0602 10.7741 10.9973 10.4451 11ZM19.4451 11C18.9506 11 18.4673 11.1466 18.0561 11.4213C17.645 11.696 17.3246 12.0865 17.1354 12.5433C16.9462 13.0001 16.8966 13.5028 16.9931 13.9877C17.0896 14.4727 17.3277 14.9181 17.6773 15.2678C18.0269 15.6174 18.4724 15.8555 18.9573 15.952C19.4423 16.0484 19.945 15.9989 20.4018 15.8097C20.8586 15.6205 21.249 15.3 21.5237 14.8889C21.7984 14.4778 21.9451 13.9945 21.9451 13.5C21.9477 13.171 21.8849 12.8447 21.7602 12.5401C21.6355 12.2356 21.4515 11.959 21.2188 11.7263C20.9861 11.4936 20.7094 11.3096 20.4049 11.1849C20.1004 11.0602 19.7741 10.9973 19.4451 11Z" fill="currentColor"/>
<path d="M26.555 13C26.808 13.9801 26.939 14.9878 26.945 16C26.945 18.3734 26.2413 20.6935 24.9227 22.6668C23.6041 24.6402 21.73 26.1783 19.5372 27.0866C17.3445 27.9948 14.9317 28.2324 12.604 27.7694C10.2762 27.3064 8.13799 26.1635 6.45976 24.4853C4.78153 22.8071 3.63864 20.6689 3.17562 18.3411C2.7126 16.0133 2.95024 13.6005 3.85849 11.4078C4.76674 9.21509 6.30481 7.34094 8.2782 6.02237C10.2516 4.70379 12.5717 4 14.945 4V2C12.047 1.99901 9.22011 2.89738 6.85432 4.57118C4.48854 6.24498 2.70049 8.61171 1.73686 11.3448C0.773234 14.078 0.681525 17.0428 1.47439 19.8302C2.26725 22.6177 3.9056 25.0904 6.16341 26.9072C8.42123 28.724 11.1872 29.7954 14.0798 29.9735C16.9723 30.1517 19.8488 29.4277 22.3125 27.9017C24.7762 26.3756 26.7055 24.1226 27.8344 21.4535C28.9633 18.7844 29.236 15.8307 28.615 13H26.555Z" fill="currentColor"/>
</svg>
