<svg width="127" height="127" viewBox="0 0 127 127" fill="none" xmlns="http://www.w3.org/2000/svg">
<path d="M43.6562 91.2812C42.6037 91.2812 41.5942 90.8631 40.8499 90.1188C40.1056 89.3745 39.6875 88.365 39.6875 87.3125V39.6875C39.6879 39.0112 39.861 38.3463 40.1905 37.7558C40.52 37.1652 40.995 36.6687 41.5703 36.3132C42.1456 35.9578 42.8021 35.7553 43.4777 35.7248C44.1532 35.6944 44.8254 35.8371 45.4303 36.1394L93.0553 59.9519C93.7136 60.2819 94.2672 60.7885 94.654 61.4151C95.0409 62.0417 95.2458 62.7636 95.2458 63.5C95.2458 64.2364 95.0409 64.9582 94.654 65.5848C94.2672 66.2114 93.7136 66.7181 93.0553 67.048L45.4303 90.8605C44.8796 91.1365 44.2722 91.2806 43.6562 91.2812ZM47.625 46.1089V80.891L82.4071 63.5L47.625 46.1089Z" fill="#F8F8F8"/>
<path d="M63.5 15.875C72.9194 15.875 82.1272 18.6682 89.9591 23.9013C97.791 29.1344 103.895 36.5724 107.5 45.2747C111.104 53.977 112.048 63.5528 110.21 72.7912C108.372 82.0295 103.836 90.5155 97.176 97.176C90.5155 103.836 82.0295 108.372 72.7912 110.21C63.5529 112.048 53.9771 111.104 45.2747 107.5C36.5724 103.895 29.1344 97.7909 23.9013 89.959C18.6682 82.1272 15.875 72.9193 15.875 63.5C15.875 50.8691 20.8926 38.7555 29.8241 29.824C38.7555 20.8926 50.8691 15.875 63.5 15.875ZM63.5 7.9375C52.5108 7.9375 41.7684 11.1962 32.6312 17.3015C23.4939 23.4068 16.3724 32.0844 12.167 42.2372C7.96157 52.3899 6.86125 63.5616 9.00514 74.3397C11.149 85.1178 16.4408 95.0181 24.2114 102.789C31.982 110.559 41.8823 115.851 52.6603 117.995C63.4384 120.139 74.6102 119.038 84.7629 114.833C94.9156 110.628 103.593 103.506 109.699 94.3689C115.804 85.2317 119.063 74.4892 119.063 63.5C119.063 48.7639 113.209 34.6314 102.789 24.2114C92.3687 13.7914 78.2361 7.9375 63.5 7.9375Z" fill="#F8F8F8"/>
</svg>
