<svg width="20" height="18" viewBox="0 0 20 18" fill="none" xmlns="http://www.w3.org/2000/svg">
<path d="M7.5 5.15591e-07C6.72418 -0.0004062 5.96734 0.23982 5.33377 0.687571C4.70021 1.13532 4.22111 1.76856 3.9625 2.5H0V5H3.9625C4.22075 5.73192 4.69967 6.36571 5.33325 6.81401C5.96683 7.26232 6.72386 7.50307 7.5 7.50307C8.27614 7.50307 9.03317 7.26232 9.66675 6.81401C10.3003 6.36571 10.7792 5.73192 11.0375 5H20V2.5H11.0375C10.7789 1.76856 10.2998 1.13532 9.66623 0.687571C9.03266 0.23982 8.27582 -0.0004062 7.5 5.15591e-07ZM6.25 3.75C6.25 3.41848 6.3817 3.10054 6.61612 2.86612C6.85054 2.6317 7.16848 2.5 7.5 2.5C7.83152 2.5 8.14946 2.6317 8.38388 2.86612C8.6183 3.10054 8.75 3.41848 8.75 3.75C8.75 4.08152 8.6183 4.39946 8.38388 4.63388C8.14946 4.86831 7.83152 5 7.5 5C7.16848 5 6.85054 4.86831 6.61612 4.63388C6.3817 4.39946 6.25 4.08152 6.25 3.75ZM12.5 10C11.7242 9.9996 10.9673 10.2398 10.3338 10.6876C9.7002 11.1353 9.2211 11.7686 8.9625 12.5H0V15H8.9625C9.22075 15.7319 9.69967 16.3657 10.3333 16.814C10.9668 17.2623 11.7239 17.5031 12.5 17.5031C13.2761 17.5031 14.0332 17.2623 14.6667 16.814C15.3003 16.3657 15.7792 15.7319 16.0375 15H20V12.5H16.0375C15.7789 11.7686 15.2998 11.1353 14.6662 10.6876C14.0327 10.2398 13.2758 9.9996 12.5 10ZM11.25 13.75C11.25 13.4185 11.3817 13.1005 11.6161 12.8661C11.8505 12.6317 12.1685 12.5 12.5 12.5C12.8315 12.5 13.1495 12.6317 13.3839 12.8661C13.6183 13.1005 13.75 13.4185 13.75 13.75C13.75 14.0815 13.6183 14.3995 13.3839 14.6339C13.1495 14.8683 12.8315 15 12.5 15C12.1685 15 11.8505 14.8683 11.6161 14.6339C11.3817 14.3995 11.25 14.0815 11.25 13.75Z" fill="#2D2C2C"/>
</svg>
