<svg width="22" height="23" viewBox="0 0 22 23" fill="none" xmlns="http://www.w3.org/2000/svg">
<path d="M20.0077 22.4312L12.5253 14.8542C11.9314 15.3353 11.2485 15.7161 10.4765 15.9968C9.7045 16.2774 8.88302 16.4177 8.01206 16.4177C5.85443 16.4177 4.02837 15.661 2.53387 14.1476C1.03936 12.6342 0.292114 10.7851 0.292114 8.60015C0.292114 6.41524 1.03936 4.56609 2.53387 3.05269C4.02837 1.53929 5.85443 0.782593 8.01206 0.782593C10.1697 0.782593 11.9957 1.53929 13.4902 3.05269C14.9847 4.56609 15.732 6.41524 15.732 8.60015C15.732 9.48213 15.5934 10.314 15.3163 11.0958C15.0392 11.8775 14.6631 12.5691 14.188 13.1704L21.6704 20.7474L20.0077 22.4312ZM8.01206 14.0123C9.49666 14.0123 10.7586 13.4861 11.7978 12.4338C12.837 11.3814 13.3566 10.1035 13.3566 8.60015C13.3566 7.09677 12.837 5.8189 11.7978 4.76654C10.7586 3.71418 9.49666 3.188 8.01206 3.188C6.52745 3.188 5.26554 3.71418 4.22632 4.76654C3.18709 5.8189 2.66748 7.09677 2.66748 8.60015C2.66748 10.1035 3.18709 11.3814 4.22632 12.4338C5.26554 13.4861 6.52745 14.0123 8.01206 14.0123Z" fill="white"/>
</svg>
