<svg width="34" height="34" viewBox="0 0 34 34" fill="none" xmlns="http://www.w3.org/2000/svg">
<g clip-path="url(#clip0_22_500)">
<path fill-rule="evenodd" clip-rule="evenodd" d="M7.08338 12.75C7.08338 10.12 8.12817 7.59763 9.9879 5.7379C11.8476 3.87816 14.37 2.83337 17 2.83337C19.6301 2.83337 22.1524 3.87816 24.0122 5.7379C25.8719 7.59763 26.9167 10.12 26.9167 12.75V18.0824L29.4979 23.2447C29.6167 23.4823 29.6728 23.7463 29.6609 24.0117C29.6489 24.2771 29.5693 24.535 29.4297 24.761C29.29 24.987 29.0949 25.1735 28.8628 25.3029C28.6308 25.4322 28.3695 25.5001 28.1039 25.5H22.4882C22.1731 26.7159 21.4632 27.7927 20.4698 28.5614C19.4765 29.33 18.2561 29.7471 17 29.7471C15.744 29.7471 14.5236 29.33 13.5303 28.5614C12.5369 27.7927 11.827 26.7159 11.5119 25.5H5.89621C5.63055 25.5001 5.3693 25.4322 5.13726 25.3029C4.90521 25.1735 4.71009 24.987 4.57042 24.761C4.43074 24.535 4.35116 24.2771 4.33922 24.0117C4.32728 23.7463 4.38339 23.4823 4.50221 23.2447L7.08338 18.0824V12.75ZM14.5464 25.5C14.7951 25.9307 15.1527 26.2884 15.5834 26.537C16.0141 26.7857 16.5027 26.9166 17 26.9166C17.4974 26.9166 17.9859 26.7857 18.4166 26.537C18.8474 26.2884 19.205 25.9307 19.4537 25.5H14.5464ZM17 5.66671C15.1214 5.66671 13.3198 6.41298 11.9914 7.74137C10.663 9.06975 9.91671 10.8714 9.91671 12.75V18.0824C9.91668 18.522 9.81434 18.9556 9.61779 19.3489L7.96029 22.6667H26.0412L24.3837 19.3489C24.1867 18.9557 24.0838 18.5221 24.0834 18.0824V12.75C24.0834 10.8714 23.3371 9.06975 22.0087 7.74137C20.6803 6.41298 18.8787 5.66671 17 5.66671Z" fill="#F8F8F8"/>
</g>
<defs>
<clipPath id="clip0_22_500">
<rect width="34" height="34" fill="white"/>
</clipPath>
</defs>
</svg>
