<svg width="39" height="39" viewBox="0 0 39 39" fill="none" xmlns="http://www.w3.org/2000/svg">
<rect x="2" y="3" width="34" height="34" rx="5" fill="#F0F0F0"/>
<path d="M27.7062 32.955C26.1137 34.4988 24.375 34.255 22.7012 33.5238C20.93 32.7763 19.305 32.7438 17.4362 33.5238C15.0962 34.5312 13.8612 34.2388 12.4637 32.955C4.53374 24.7813 5.70374 12.3338 14.7062 11.8788C16.9 11.9925 18.4275 13.0813 19.7112 13.1788C21.6287 12.7888 23.465 11.6675 25.5125 11.8138C27.9662 12.0088 29.8187 12.9838 31.0375 14.7388C25.9675 17.7775 27.17 24.4563 31.8175 26.325C30.8912 28.7625 29.6887 31.1838 27.69 32.9713L27.7062 32.955ZM19.5487 11.7813C19.305 8.1575 22.2462 5.1675 25.6262 4.875C26.0975 9.0675 21.8237 12.1875 19.5487 11.7813Z" fill="#333333"/>
</svg>
