<svg width="34" height="34" viewBox="0 0 34 34" fill="none" xmlns="http://www.w3.org/2000/svg">
<rect width="34" height="34" rx="5" fill="#F0F0F0"/>
<path d="M32.0004 17.5458C32.0017 16.5101 31.9135 15.4762 31.7368 14.4555H17.304V20.309H25.5704C25.4013 21.2438 25.0433 22.135 24.5179 22.9288C23.9926 23.7226 23.3109 24.4025 22.5138 24.9276V28.7272H27.4473C30.336 26.0822 32.0004 22.1708 32.0004 17.5458Z" fill="#4285F4"/>
<path d="M17.3041 32.3982C21.4342 32.3982 24.9116 31.0515 27.4475 28.7295L22.514 24.9299C21.1408 25.8545 19.3723 26.3822 17.3041 26.3822C13.3123 26.3822 9.92407 23.7098 8.71248 20.1087H3.63019V24.0244C4.90399 26.5415 6.85722 28.6576 9.27182 30.1363C11.6864 31.615 14.4673 32.3981 17.3041 32.3982Z" fill="#34A853"/>
<path d="M8.71211 20.1083C8.07159 18.2212 8.07159 16.1777 8.71211 14.2907V10.375H3.62982C2.55825 12.4925 2.00018 14.8296 2.00018 17.1995C2.00018 19.5693 2.55825 21.9064 3.62982 24.0239L8.71211 20.1083Z" fill="#FBBC04"/>
<path d="M17.3041 8.01701C19.4867 7.9816 21.5956 8.80052 23.175 10.2968L27.5431 5.9589C24.7733 3.37534 21.1039 1.95692 17.3041 2.001C14.4673 2.00113 11.6864 2.78425 9.27182 4.26294C6.85722 5.74163 4.90399 7.85769 3.63019 10.3749L8.71248 14.2906C9.92407 10.6894 13.3123 8.01701 17.3041 8.01701Z" fill="#EA4335"/>
</svg>
